<?xml version="1.0" encoding="UTF-8"?>
<svg xmlns="http://www.w3.org/2000/svg" viewBox="0 0 50 32">
  <defs>
    <style>
      .cls-1, .cls-2 {
        fill: #ee4e2c;
      }

      .cls-3 {
        fill: #fff;
      }

      .cls-2, .cls-4 {
        fill-rule: evenodd;
      }

      .cls-4 {
        fill: #fefefe;
      }
    </style>
  </defs>
  <g id="BG">
    <rect class="cls-3" width="50" height="32" rx="4" ry="4"/>
  </g>
  <g id="LOGOS">
    <g id="Layer_1">
      <path class="cls-2" d="m6.03,11.14h13.54c.9,0,1.64.74,1.64,1.64v9.47c0,.9-.74,1.64-1.64,1.64H5.64c-.9,0-1.64-.74-1.64-1.64v-11.7c0-.43.35-.72.77-.77l12.49-1.59c.43,0,.77.35.77.77v1.33H5.25c0,.55.17.86.78.86h0Zm7.59,10.38h0c-1.14.22-2.6-.16-3.4-1.02-.36-.39.22-.97.58-.58.54.58,1.49.85,2.27.83.99-.02,1.88-.93,1.31-1.94-.78-1.39-2.7-1-3.69-2.1-.8-.89-.42-2.28.52-2.9.98-.65,2.67-.62,3.48.3.35.4-.23.98-.58.58-.65-.75-2.19-.65-2.77.12-.84,1.09.41,1.69,1.29,1.95,1.2.36,2.53,1.03,2.75,2.4.17,1.11-.68,2.14-1.74,2.34h0Z"/>
      <path class="cls-4" d="m13.62,21.52h0c-1.14.22-2.6-.16-3.4-1.02-.36-.39.22-.97.58-.58.54.58,1.49.85,2.27.83.99-.02,1.88-.93,1.31-1.94-.78-1.39-2.7-1-3.69-2.1-.8-.89-.42-2.28.52-2.9.98-.65,2.67-.62,3.48.3.35.4-.23.98-.58.58-.65-.75-2.19-.65-2.77.12-.84,1.09.41,1.69,1.29,1.95,1.2.36,2.53,1.03,2.75,2.4.17,1.11-.68,2.14-1.74,2.34h0Z"/>
      <path class="cls-1" d="m36.94,10.55c-.49,0-.92.2-1.22.53v-.38c0-.34-.55-.34-.55,0v4.47c0,.34.55.35.55,0v-1.99c.3.33.74.53,1.22.53.9,0,1.63-.71,1.63-1.58s-.73-1.58-1.63-1.58h0Zm0,2.59h0c-.58,0-1.04-.45-1.04-1.01,0-.5.38-.92.87-1h0s.1-.01.16-.01c.42,0,.79.25.95.6h0c.05.13.09.26.09.41,0,.56-.47,1.01-1.04,1.01Zm-4.05.57c-.9,0-1.63-.71-1.63-1.58s.73-1.58,1.63-1.58,1.63.71,1.63,1.58-.73,1.58-1.63,1.58Zm0-2.59h0c-.57,0-1.04.45-1.04,1.01s.47,1.01,1.04,1.01,1.04-.45,1.04-1.01-.47-1.01-1.04-1.01Zm13.1.98c-.01-.73-.4-1.39-1.19-1.53-.69-.13-1.49.22-1.78.85-.3.65-.18,1.53.42,1.98.65.49,1.65.34,2.32-.02.31-.17.03-.63-.28-.46-.42.23-.97.34-1.44.19-.35-.11-.55-.41-.61-.74h2.28c.15,0,.28-.12.27-.27h0Zm-2.54-.27h0s0-.04.01-.06c.13-.43.58-.69,1.04-.7.52-.01.81.34.9.75h-1.96,0Zm-1.12.27c-.01-.73-.4-1.39-1.19-1.53-.69-.13-1.49.22-1.78.85-.3.65-.18,1.53.42,1.98.65.49,1.65.34,2.32-.02.31-.17.03-.63-.28-.46-.42.23-.97.34-1.44.19-.35-.11-.55-.41-.61-.74h2.28c.15,0,.28-.12.27-.27h0Zm-2.54-.27h0s0-.04.01-.06c.13-.43.58-.69,1.04-.7.52-.01.81.34.9.75h-1.96,0Zm-9.19-.25v1.85c0,.35-.55.35-.55,0v-1.81c-.02-.36-.32-.52-.34-.53-.39-.17-1.1-.09-1.52.45v1.89c0,.35-.55.35-.55,0v-4.75c0-.35.55-.35.55,0v2.13c.67-.45,1.53-.4,1.93-.12,0,0,.48.26.48.89Zm-3.85-2.68c-.54-.59-1.67-.61-2.32-.2-.63.4-.88,1.29-.35,1.86.66.7,1.94.45,2.47,1.35.38.65-.21,1.23-.88,1.24-.52,0-1.16-.16-1.52-.53-.24-.25-.63.12-.39.37.53.55,1.51.8,2.27.65.71-.13,1.28-.8,1.16-1.5-.15-.88-1.04-1.31-1.84-1.54-.58-.17-1.42-.55-.86-1.25.39-.5,1.42-.56,1.85-.08.23.25.62-.12.39-.37h0Z"/>
      <path class="cls-2" d="m41.07,26.64h-1.74l1.86-3.52-3.06-5.78h1.89l2.12,4,2.12-4h1.74l-4.93,9.31Zm-17.36-2.76h1.46v-2.67h1.97c2.04,0,3.7-1.43,3.7-3.2s-1.65-3.2-3.7-3.2h-3.43v9.07h0Zm1.46-4.13v-3.48h1.97c1.11,0,2.01.78,2.01,1.74s-.9,1.74-2.01,1.74h-1.97Zm11.14-2.36h1.28v6.44h-1.28v-.72c-.57.49-1.31.78-2.12.78-1.81,0-3.28-1.47-3.28-3.28s1.47-3.28,3.28-3.28c.81,0,1.55.3,2.12.78v-.72h0Zm-2.12,1.32c1.04,0,1.89.85,1.89,1.89s-.85,1.89-1.89,1.89-1.89-.85-1.89-1.89.85-1.89,1.89-1.89Z"/>
    </g>
  </g>
</svg>